<?xml version="1.0" encoding="UTF-8"?>
<svg xmlns="http://www.w3.org/2000/svg" xmlns:xlink="http://www.w3.org/1999/xlink" width="30px" height="30px" viewBox="0 0 30 30" version="1.1">
<g id="surface1">
<path style=" stroke:none;fill-rule:nonzero;fill:rgb(0%,0%,0%);fill-opacity:1;" d="M 8.710938 8.710938 C 8.886719 8.535156 9.125 8.4375 9.375 8.4375 C 9.625 8.4375 9.863281 8.535156 10.039062 8.710938 L 15 13.675781 L 19.960938 8.710938 C 20.328125 8.34375 20.921875 8.34375 21.289062 8.710938 C 21.65625 9.078125 21.65625 9.671875 21.289062 10.039062 L 16.324219 15 L 21.289062 19.960938 C 21.65625 20.328125 21.65625 20.921875 21.289062 21.289062 C 20.921875 21.65625 20.328125 21.65625 19.960938 21.289062 L 15 16.324219 L 10.039062 21.289062 C 9.671875 21.65625 9.078125 21.65625 8.710938 21.289062 C 8.34375 20.921875 8.34375 20.328125 8.710938 19.960938 L 13.675781 15 L 8.710938 10.039062 C 8.535156 9.863281 8.4375 9.625 8.4375 9.375 C 8.4375 9.125 8.535156 8.886719 8.710938 8.710938 "/>
</g>
</svg>
