<?xml version="1.0" encoding="UTF-8"?>
<svg xmlns="http://www.w3.org/2000/svg" xmlns:xlink="http://www.w3.org/1999/xlink" width="40px" height="40px" viewBox="0 0 40 40" version="1.1">
<g id="surface1">
<path style=" stroke:none;fill-rule:nonzero;fill:rgb(0%,0%,0%);fill-opacity:1;" d="M 11.613281 11.613281 C 11.847656 11.378906 12.167969 11.25 12.5 11.25 C 12.832031 11.25 13.152344 11.378906 13.386719 11.613281 L 20 18.234375 L 26.613281 11.613281 C 27.105469 11.125 27.894531 11.125 28.386719 11.613281 C 28.875 12.105469 28.875 12.894531 28.386719 13.386719 L 21.765625 20 L 28.386719 26.613281 C 28.875 27.105469 28.875 27.894531 28.386719 28.386719 C 27.894531 28.875 27.105469 28.875 26.613281 28.386719 L 20 21.765625 L 13.386719 28.386719 C 12.894531 28.875 12.105469 28.875 11.613281 28.386719 C 11.125 27.894531 11.125 27.105469 11.613281 26.613281 L 18.234375 20 L 11.613281 13.386719 C 11.378906 13.152344 11.25 12.832031 11.25 12.5 C 11.25 12.167969 11.378906 11.847656 11.613281 11.613281 "/>
</g>
</svg>
