<?xml version="1.0" encoding="UTF-8"?>
<svg xmlns="http://www.w3.org/2000/svg" xmlns:xlink="http://www.w3.org/1999/xlink" width="40px" height="40px" viewBox="0 0 40 40" version="1.1">
<g id="surface1">
<path style=" stroke:none;fill-rule:evenodd;fill:rgb(0%,0%,0%);fill-opacity:1;" d="M 6.25 30 C 6.25 29.308594 6.808594 28.75 7.5 28.75 L 32.5 28.75 C 33.191406 28.75 33.75 29.308594 33.75 30 C 33.75 30.691406 33.191406 31.25 32.5 31.25 L 7.5 31.25 C 6.808594 31.25 6.25 30.691406 6.25 30 M 6.25 20 C 6.25 19.308594 6.808594 18.75 7.5 18.75 L 32.5 18.75 C 33.191406 18.75 33.75 19.308594 33.75 20 C 33.75 20.691406 33.191406 21.25 32.5 21.25 L 7.5 21.25 C 6.808594 21.25 6.25 20.691406 6.25 20 M 6.25 10 C 6.25 9.308594 6.808594 8.75 7.5 8.75 L 32.5 8.75 C 33.191406 8.75 33.75 9.308594 33.75 10 C 33.75 10.691406 33.191406 11.25 32.5 11.25 L 7.5 11.25 C 6.808594 11.25 6.25 10.691406 6.25 10 "/>
</g>
</svg>
